<?xml version="1.0" encoding="utf-8"?>
<svg xmlns="http://www.w3.org/2000/svg" xmlns:bx="https://boxy-svg.com" viewBox="0 0 800 600">
  <text x="400" y="30" font-family="Arial, sans-serif" font-size="22" font-weight="bold" text-anchor="middle" fill="#1a1a1a" style="white-space: pre;">
    LLM Agent
  </text>
  <rect x="320" y="40.103" width="160" height="50" rx="8" fill="#9b59b6" stroke="#7d3c98" stroke-width="2"/>
  <text x="400.129" y="70.862" font-family="Arial, sans-serif" font-size="15" font-weight="bold" text-anchor="middle" fill="white" style="white-space: pre; font-size: 15px;">
    Memory
  </text>
  <ellipse cx="400" cy="180" rx="120" ry="70" fill="#4a90e2" stroke="#2c5aa0" stroke-width="3"/>
  <path d="M 404.66 87.289 L 404.66 137.611" stroke="#9b59b6" stroke-width="2" fill="none" marker-end="url(#arrowpurple)" marker-start="url(#arrowpurplereverse)" stroke-dasharray="3,3" style=""/>
  <text x="400" y="175" font-family="Arial, sans-serif" font-size="18" font-weight="bold" text-anchor="middle" fill="white" style="white-space: pre;">
    LLM
  </text>
  <text x="400" y="195" font-family="Arial, sans-serif" font-size="14" text-anchor="middle" fill="white" style="white-space: pre;">
    (Planning)
  </text>
  <rect x="50" y="150" width="180" height="60" rx="10" fill="#e8f4f8" stroke="#4a90e2" stroke-width="2"/>
  <text x="140" y="175" font-family="Arial, sans-serif" font-size="14" text-anchor="middle" fill="#1a1a1a" style="white-space: pre;">
    Task
  </text>
  <text x="140" y="195" font-family="Arial, sans-serif" font-size="12" text-anchor="middle" fill="#555" style="white-space: pre;">
    (language / structured)
  </text>
  <defs>
    <marker id="arrowblue" markerWidth="10" markerHeight="10" refX="9" refY="3" orient="auto" markerUnits="strokeWidth">
      <path d="M0,0 L0,6 L9,3 z" fill="#4a90e2"/>
    </marker>
    <marker id="arrowgreen" markerWidth="10" markerHeight="10" refX="9" refY="3" orient="auto" markerUnits="strokeWidth">
      <path d="M0,0 L0,6 L9,3 z" fill="#27ae60"/>
    </marker>
    <marker id="arroworange" markerWidth="10" markerHeight="10" refX="9" refY="3" orient="auto" markerUnits="strokeWidth">
      <path d="M0,0 L0,6 L9,3 z" fill="#e67e22"/>
    </marker>
    <marker id="arrowpurple" markerWidth="10" markerHeight="10" refX="9" refY="3" orient="auto" markerUnits="strokeWidth">
      <path d="M0,0 L0,6 L9,3 z" fill="#9b59b6"/>
    </marker>
    <marker id="arrowpurplereverse" markerWidth="10" markerHeight="10" refX="0" refY="3" orient="auto" markerUnits="strokeWidth">
      <path d="M9,0 L9,6 L0,3 z" fill="#9b59b6"/>
    </marker>
    <bx:export>
      <bx:file format="svg"/>
    </bx:export>
  </defs>
  <path d="M 230 180 L 280 180" stroke="#4a90e2" stroke-width="2" fill="none" marker-end="url(#arrowblue)"/>
  <text x="400" y="270" font-family="Arial, sans-serif" font-size="16" font-weight="bold" text-anchor="middle" fill="#1a1a1a" style="white-space: pre;">
    Tools
  </text>
  <rect x="80" y="290" width="120" height="50" rx="8" fill="#27ae60" stroke="#1e7e34" stroke-width="2"/>
  <rect x="240" y="290" width="120" height="50" rx="8" fill="#27ae60" stroke="#1e7e34" stroke-width="2"/>
  <text x="300" y="320" font-family="Arial, sans-serif" font-size="13" text-anchor="middle" fill="white" font-weight="bold" style="white-space: pre;">
    Tool 2
  </text>
  <rect x="440" y="290" width="120" height="50" rx="8" fill="#27ae60" stroke="#1e7e34" stroke-width="2"/>
  <text x="500" y="320" font-family="Arial, sans-serif" font-size="13" text-anchor="middle" fill="white" font-weight="bold" style="white-space: pre;">
    Tool 3
  </text>
  <rect x="600" y="290" width="120" height="50" rx="8" fill="#27ae60" stroke="#1e7e34" stroke-width="2"/>
  <text x="660" y="320" font-family="Arial, sans-serif" font-size="13" text-anchor="middle" fill="white" font-weight="bold" style="white-space: pre;">
    Tool N
  </text>
  <path d="M 148.558 434.298 C 66.479 421.099 -108.128 257.22 277.052 205.129 C 281.586 204.162 286.198 203.207 290.888 202.264" stroke-width="2" fill="none" stroke-dasharray="5,5" style="paint-order: fill; stroke: rgb(155, 89, 182); marker-end: url(&quot;#arrowpurple&quot;);"/>
  <path d="M 380 230 Q 340 240 300 290" stroke="#27ae60" stroke-width="2" fill="none" marker-end="url(#arrowgreen)" stroke-dasharray="5,5"/>
  <path d="M 420 230 Q 460 240 500 290" stroke="#27ae60" stroke-width="2" fill="none" marker-end="url(#arrowgreen)" stroke-dasharray="5,5"/>
  <path d="M 460 230 Q 580 240 660 290" stroke="#27ae60" stroke-width="2" fill="none" marker-end="url(#arrowgreen)" stroke-dasharray="5,5"/>
  <rect x="150" y="400" width="500" height="69.329" rx="10" fill="#fff3e0" stroke="#e67e22" stroke-width="3" style=""/>
  <text x="400" y="425" font-family="Arial, sans-serif" font-size="16" font-weight="bold" text-anchor="middle" fill="#1a1a1a" style="white-space: pre;">
    Environment
  </text>
  <text x="400" y="450" font-family="Arial, sans-serif" font-size="13" text-anchor="middle" fill="#555" style="white-space: pre;">
    (interaction via tools)
  </text>
  <path d="M 140 340 L 250 400" stroke="#e67e22" stroke-width="2" fill="none" marker-end="url(#arroworange)"/>
  <path d="M 300 340 L 350 400" stroke="#e67e22" stroke-width="2" fill="none" marker-end="url(#arroworange)"/>
  <path d="M 500 340 L 450 400" stroke="#e67e22" stroke-width="2" fill="none" marker-end="url(#arroworange)"/>
  <path d="M 660 340 L 550 400" stroke="#e67e22" stroke-width="2" fill="none" marker-end="url(#arroworange)"/>
  <rect x="550" y="150" width="200" height="60" rx="10" fill="#ffebee" stroke="#c62828" stroke-width="2" stroke-dasharray="5,5"/>
  <text x="650" y="173" font-family="Arial, sans-serif" font-size="14" text-anchor="middle" fill="#1a1a1a" font-weight="bold" style="white-space: pre;">
    Result
  </text>
  <text x="650" y="193" font-family="Arial, sans-serif" font-size="12" text-anchor="middle" fill="#c62828" style="white-space: pre;">
    (non-deterministic)
  </text>
  <path d="M 520 180 L 550 180" stroke="#c62828" stroke-width="2" fill="none" marker-end="url(#arroworange)" stroke-dasharray="5,5"/>
  <text x="51.568" y="434.389" font-family="Arial, sans-serif" font-size="11" fill="#9b59b6" font-style="italic" style="white-space: pre; font-size: 11px;">
    feedback
  </text>
  <text x="50" y="570" font-family="Arial, sans-serif" font-size="11" fill="#666" font-style="italic" style="white-space: pre;">
    * Process and result are non-deterministic
  </text>
  <path d="M 318.586 226.999 C 225.253 253.666 158.586 283.666 118.586 316.999" stroke="#27ae60" stroke-width="2" fill="none" marker-end="url(#arrowgreen)" stroke-dasharray="5,5" style="stroke-width: 2;"/>
  <text x="140" y="320" font-family="Arial, sans-serif" font-size="13" text-anchor="middle" fill="white" font-weight="bold" style="white-space: pre;">
    Tool 1
  </text>
</svg>